<svg xmlns="http://www.w3.org/2000/svg" xmlns:xlink="http://www.w3.org/1999/xlink" viewBox="0 0 375 375" width="100%" height="100%" preserveAspectRatio="xMidYMid meet" version="1.0">
  <defs>
    <mask id="cutout-mask" maskUnits="userSpaceOnUse" x="0" y="0" width="375" height="375">
      <rect width="375" height="375" fill="#ffffff" />
      
      <svg x="9.375" y="9.375" width="356.25" height="356.25" viewBox="0 0 375 374.999991">
        <defs>
          <g/>
          <clipPath id="88bf649560"><path d="M 120.753906 73.949219 L 163.929688 73.949219 L 163.929688 113.003906 L 120.753906 113.003906 Z M 120.753906 73.949219 " clip-rule="nonzero"/></clipPath>
          <clipPath id="8a0e2dc66d"><path d="M 163.296875 82.203125 C 161.941406 77.585938 157.550781 73.949219 152.363281 73.949219 C 148.007812 73.949219 144.226562 76.40625 142.3125 80.015625 C 140.398438 76.40625 136.617188 73.949219 132.261719 73.949219 C 126.835938 73.949219 122.089844 77.585938 121.15625 82.867188 C 118.792969 96.257812 133.769531 106.738281 142.347656 113.003906 C 150.273438 107.210938 167.183594 95.394531 163.296875 82.203125 Z M 163.296875 82.203125 " clip-rule="nonzero"/></clipPath>
          <clipPath id="36f7e87bc7"><path d="M 0.753906 0.949219 L 43.929688 0.949219 L 43.929688 40.003906 L 0.753906 40.003906 Z M 0.753906 0.949219 " clip-rule="nonzero"/></clipPath>
          <clipPath id="7f50d7ff40"><path d="M 43.296875 9.203125 C 41.941406 4.585938 37.550781 0.949219 32.363281 0.949219 C 28.007812 0.949219 24.226562 3.40625 22.3125 7.015625 C 20.398438 3.40625 16.617188 0.949219 12.261719 0.949219 C 6.835938 0.949219 2.089844 4.585938 1.15625 9.867188 C -1.207031 23.257812 13.769531 33.738281 22.347656 40.003906 C 30.273438 34.210938 47.183594 22.394531 43.296875 9.203125 Z M 43.296875 9.203125 " clip-rule="nonzero"/></clipPath>
          <clipPath id="b51adadcd6"><rect x="0" width="44" y="0" height="41"/></clipPath>
        </defs>
        
        <g fill="#000000" fill-opacity="1"><g transform="translate(18.056251, 177.761988)"><g><path d="M 6.703125 0 L 6.703125 -60.265625 L 25.671875 -60.265625 L 25.671875 0 Z M 45.265625 0 L 45.265625 -35.21875 C 45.265625 -38.269531 44.332031 -40.644531 42.46875 -42.34375 C 40.613281 -44.039062 38.320312 -44.890625 35.59375 -44.890625 C 33.6875 -44.890625 31.988281 -44.492188 30.5 -43.703125 C 29.007812 -42.921875 27.832031 -41.828125 26.96875 -40.421875 C 26.101562 -39.015625 25.671875 -37.28125 25.671875 -35.21875 L 18.359375 -38.4375 C 18.359375 -43.226562 19.390625 -47.335938 21.453125 -50.765625 C 23.515625 -54.203125 26.320312 -56.847656 29.875 -58.703125 C 33.4375 -60.566406 37.445312 -61.5 41.90625 -61.5 C 46.125 -61.5 49.90625 -60.546875 53.25 -58.640625 C 56.601562 -56.742188 59.269531 -54.097656 61.25 -50.703125 C 63.238281 -47.316406 64.234375 -43.269531 64.234375 -38.5625 L 64.234375 0 Z M 83.828125 0 L 83.828125 -35.21875 C 83.828125 -38.269531 82.894531 -40.644531 81.03125 -42.34375 C 79.175781 -44.039062 76.882812 -44.890625 74.15625 -44.890625 C 72.25 -44.890625 70.550781 -44.492188 69.0625 -43.703125 C 67.582031 -42.921875 66.40625 -41.828125 65.53125 -40.421875 C 64.664062 -39.015625 64.234375 -37.28125 64.234375 -35.21875 L 53.3125 -36.703125 C 53.476562 -41.828125 54.695312 -46.226562 56.96875 -49.90625 C 59.25 -53.582031 62.269531 -56.429688 66.03125 -58.453125 C 69.789062 -60.484375 74.023438 -61.5 78.734375 -61.5 C 83.367188 -61.5 87.484375 -60.523438 91.078125 -58.578125 C 94.671875 -56.640625 97.519531 -53.875 99.625 -50.28125 C 101.738281 -46.6875 102.796875 -42.367188 102.796875 -37.328125 L 102.796875 0 Z M 83.828125 0 "/></g></g></g><g fill="#000000" fill-opacity="1"><g transform="translate(126.304764, 177.761988)"><g><path d="M 6.703125 0 L 6.703125 -60.265625 L 25.671875 -60.265625 L 25.671875 0 Z M 16.25 -68.578125 C 13.269531 -68.578125 10.804688 -69.585938 8.859375 -71.609375 C 6.921875 -73.628906 5.953125 -76.085938 5.953125 -78.984375 C 5.953125 -81.960938 6.921875 -84.441406 8.859375 -86.421875 C 10.804688 -88.410156 13.269531 -89.40625 16.25 -89.40625 C 19.21875 -89.40625 21.648438 -88.410156 23.546875 -86.421875 C 25.453125 -84.441406 26.40625 -81.960938 26.40625 -78.984375 C 26.40625 -76.085938 25.453125 -73.628906 23.546875 -71.609375 C 21.648438 -69.585938 19.21875 -68.578125 16.25 -68.578125 Z M 16.25 -68.578125 "/></g></g></g><g fill="#000000" fill-opacity="1"><g transform="translate(158.667727, 177.761988)"><g><path d="M 35.84375 1.359375 C 29.632812 1.359375 24.007812 0 18.96875 -2.71875 C 13.925781 -5.445312 9.957031 -9.207031 7.0625 -14 C 4.175781 -18.800781 2.734375 -24.175781 2.734375 -30.125 C 2.734375 -36.164062 4.195312 -41.5625 7.125 -46.3125 C 10.0625 -51.0625 14.050781 -54.800781 19.09375 -57.53125 C 24.132812 -60.257812 29.796875 -61.625 36.078125 -61.625 C 40.796875 -61.625 45.117188 -60.816406 49.046875 -59.203125 C 52.972656 -57.597656 56.460938 -55.179688 59.515625 -51.953125 L 47.375 -39.796875 C 45.96875 -41.367188 44.332031 -42.523438 42.46875 -43.265625 C 40.613281 -44.015625 38.484375 -44.390625 36.078125 -44.390625 C 33.347656 -44.390625 30.929688 -43.789062 28.828125 -42.59375 C 26.722656 -41.394531 25.070312 -39.738281 23.875 -37.625 C 22.675781 -35.519531 22.078125 -33.0625 22.078125 -30.25 C 22.078125 -27.445312 22.675781 -24.96875 23.875 -22.8125 C 25.070312 -20.664062 26.742188 -18.972656 28.890625 -17.734375 C 31.035156 -16.492188 33.429688 -15.875 36.078125 -15.875 C 38.554688 -15.875 40.765625 -16.304688 42.703125 -17.171875 C 44.648438 -18.035156 46.328125 -19.253906 47.734375 -20.828125 L 59.765625 -8.6875 C 56.628906 -5.375 53.078125 -2.867188 49.109375 -1.171875 C 45.140625 0.515625 40.71875 1.359375 35.84375 1.359375 Z M 35.84375 1.359375 "/></g></g></g><g fill="#000000" fill-opacity="1"><g transform="translate(218.681696, 177.761988)"><g><path d="M 35.71875 1.359375 C 29.507812 1.359375 23.90625 -0.0195312 18.90625 -2.78125 C 13.90625 -5.550781 9.957031 -9.332031 7.0625 -14.125 C 4.175781 -18.925781 2.734375 -24.300781 2.734375 -30.25 C 2.734375 -36.207031 4.175781 -41.539062 7.0625 -46.25 C 9.957031 -50.957031 13.882812 -54.695312 18.84375 -57.46875 C 23.800781 -60.238281 29.425781 -61.625 35.71875 -61.625 C 42 -61.625 47.617188 -60.257812 52.578125 -57.53125 C 57.535156 -54.800781 61.460938 -51.0625 64.359375 -46.3125 C 67.253906 -41.5625 68.703125 -36.207031 68.703125 -30.25 C 68.703125 -24.300781 67.253906 -18.925781 64.359375 -14.125 C 61.460938 -9.332031 57.535156 -5.550781 52.578125 -2.78125 C 47.617188 -0.0195312 42 1.359375 35.71875 1.359375 Z M 35.71875 -15.875 C 38.4375 -15.875 40.828125 -16.472656 42.890625 -17.671875 C 44.960938 -18.867188 46.554688 -20.5625 47.671875 -22.75 C 48.796875 -24.945312 49.359375 -27.445312 49.359375 -30.25 C 49.359375 -33.0625 48.773438 -35.519531 47.609375 -37.625 C 46.453125 -39.738281 44.859375 -41.394531 42.828125 -42.59375 C 40.804688 -43.789062 38.4375 -44.390625 35.71875 -44.390625 C 33.070312 -44.390625 30.710938 -43.789062 28.640625 -42.59375 C 26.578125 -41.394531 24.96875 -39.71875 23.8125 -37.5625 C 22.65625 -35.414062 22.078125 -32.9375 22.078125 -30.125 C 22.078125 -27.40625 22.65625 -24.945312 23.8125 -22.75 C 24.96875 -20.5625 26.578125 -18.867188 28.640625 -17.671875 C 30.710938 -16.472656 33.070312 -15.875 35.71875 -15.875 Z M 35.71875 -15.875 "/></g></g></g><g fill="#000000" fill-opacity="1"><g transform="translate(290.103399, 177.761988)"><g><path d="M 33.484375 1.359375 C 27.941406 1.359375 23.039062 0.222656 18.78125 -2.046875 C 14.53125 -4.316406 11.203125 -7.457031 8.796875 -11.46875 C 6.398438 -15.476562 5.203125 -20.085938 5.203125 -25.296875 L 5.203125 -60.265625 L 24.1875 -60.265625 L 24.1875 -25.546875 C 24.1875 -23.472656 24.535156 -21.691406 25.234375 -20.203125 C 25.929688 -18.722656 26.984375 -17.566406 28.390625 -16.734375 C 29.796875 -15.910156 31.492188 -15.5 33.484375 -15.5 C 36.296875 -15.5 38.523438 -16.382812 40.171875 -18.15625 C 41.828125 -19.9375 42.65625 -22.398438 42.65625 -25.546875 L 42.65625 -60.265625 L 61.625 -60.265625 L 61.625 -25.421875 C 61.625 -20.128906 60.425781 -15.476562 58.03125 -11.46875 C 55.632812 -7.457031 52.328125 -4.316406 48.109375 -2.046875 C 43.890625 0.222656 39.015625 1.359375 33.484375 1.359375 Z M 33.484375 1.359375 "/></g></g></g><g fill="#000000" fill-opacity="1"><g transform="translate(16.300006, 274.486492)"><g><path d="M 27.59375 2.03125 C 22.8125 2.03125 18.828125 0.375 15.640625 -2.9375 C 12.453125 -6.25 10.859375 -10.238281 10.859375 -14.90625 C 10.859375 -19.8125 12.453125 -23.890625 15.640625 -27.140625 C 18.828125 -30.390625 22.8125 -32.015625 27.59375 -32.015625 C 32.5 -32.015625 36.515625 -30.390625 39.640625 -27.140625 C 42.773438 -23.890625 44.34375 -19.8125 44.34375 -14.90625 C 44.34375 -10.238281 42.773438 -6.25 39.640625 -2.9375 C 36.515625 0.375 32.5 2.03125 27.59375 2.03125 Z M 27.59375 2.03125 "/></g></g></g><g fill="#000000" fill-opacity="1"><g transform="translate(69.287418, 274.486492)"><g><path d="M 52.984375 2.03125 C 43.785156 2.03125 35.472656 -0.0195312 28.046875 -4.125 C 20.628906 -8.238281 14.773438 -13.851562 10.484375 -20.96875 C 6.191406 -28.082031 4.046875 -36.054688 4.046875 -44.890625 C 4.046875 -53.722656 6.191406 -61.632812 10.484375 -68.625 C 14.773438 -75.613281 20.597656 -81.160156 27.953125 -85.265625 C 35.316406 -89.378906 43.660156 -91.4375 52.984375 -91.4375 C 62.304688 -91.4375 70.644531 -89.410156 78 -85.359375 C 85.363281 -81.316406 91.191406 -75.769531 95.484375 -68.71875 C 99.773438 -61.664062 101.921875 -53.722656 101.921875 -44.890625 C 101.921875 -36.054688 99.773438 -28.082031 95.484375 -20.96875 C 91.191406 -13.851562 85.363281 -8.238281 78 -4.125 C 70.644531 -0.0195312 62.304688 2.03125 52.984375 2.03125 Z M 52.984375 -23.546875 C 57.035156 -23.546875 60.59375 -24.4375 63.65625 -26.21875 C 66.726562 -28 69.085938 -30.515625 70.734375 -33.765625 C 72.390625 -37.015625 73.21875 -40.722656 73.21875 -44.890625 C 73.21875 -49.054688 72.359375 -52.703125 70.640625 -55.828125 C 68.929688 -58.960938 66.570312 -61.414062 63.5625 -63.1875 C 60.5625 -64.96875 57.035156 -65.859375 52.984375 -65.859375 C 49.054688 -65.859375 45.5625 -64.96875 42.5 -63.1875 C 39.4375 -61.414062 37.046875 -58.9375 35.328125 -55.75 C 33.609375 -52.5625 32.75 -48.878906 32.75 -44.703125 C 32.75 -40.660156 33.609375 -37.015625 35.328125 -33.765625 C 37.046875 -30.515625 39.4375 -28 42.5 -26.21875 C 45.5625 -24.4375 49.054688 -23.546875 52.984375 -23.546875 Z M 52.984375 -23.546875 "/></g></g></g><g fill="#000000" fill-opacity="1"><g transform="translate(175.262391, 274.486492)"><g><path d="M 9.9375 0 L 9.9375 -89.421875 L 38.078125 -89.421875 L 38.078125 0 Z M 38.078125 -49.125 L 26.3125 -58.328125 C 28.644531 -68.753906 32.566406 -76.847656 38.078125 -82.609375 C 43.597656 -88.367188 51.265625 -91.25 61.078125 -91.25 C 65.367188 -91.25 69.140625 -90.601562 72.390625 -89.3125 C 75.640625 -88.03125 78.492188 -86.039062 80.953125 -83.34375 L 64.203125 -62.1875 C 62.984375 -63.53125 61.453125 -64.570312 59.609375 -65.3125 C 57.765625 -66.050781 55.679688 -66.421875 53.359375 -66.421875 C 48.691406 -66.421875 44.976562 -64.976562 42.21875 -62.09375 C 39.457031 -59.207031 38.078125 -54.882812 38.078125 -49.125 Z M 38.078125 -49.125 "/></g></g></g><g fill="#000000" fill-opacity="1"><g transform="translate(251.247745, 274.486492)"><g><path d="M 47.828125 40.109375 C 38.015625 40.109375 29.398438 38.421875 21.984375 35.046875 C 14.566406 31.671875 8.710938 26.921875 4.421875 20.796875 L 21.703125 3.5 C 24.898438 7.300781 28.488281 10.179688 32.46875 12.140625 C 36.457031 14.109375 41.273438 15.09375 46.921875 15.09375 C 53.910156 15.09375 59.394531 13.375 63.375 9.9375 C 67.363281 6.5 69.359375 1.65625 69.359375 -4.59375 L 69.359375 -27.40625 L 74.140625 -46.921875 L 69.90625 -66.421875 L 69.90625 -89.421875 L 97.515625 -89.421875 L 97.515625 -5.328125 C 97.515625 3.867188 95.363281 11.835938 91.0625 18.578125 C 86.769531 25.328125 80.882812 30.601562 73.40625 34.40625 C 65.925781 38.207031 57.398438 40.109375 47.828125 40.109375 Z M 46.546875 -2.765625 C 38.328125 -2.765625 31.03125 -4.722656 24.65625 -8.640625 C 18.28125 -12.566406 13.25 -17.898438 9.5625 -24.640625 C 5.882812 -31.390625 4.046875 -38.875 4.046875 -47.09375 C 4.046875 -55.4375 5.882812 -62.953125 9.5625 -69.640625 C 13.25 -76.328125 18.28125 -81.597656 24.65625 -85.453125 C 31.03125 -89.316406 38.328125 -91.25 46.546875 -91.25 C 52.679688 -91.25 58.171875 -90.113281 63.015625 -87.84375 C 67.859375 -85.582031 71.78125 -82.394531 74.78125 -78.28125 C 77.789062 -74.175781 79.476562 -69.425781 79.84375 -64.03125 L 79.84375 -29.984375 C 79.476562 -24.710938 77.789062 -20.019531 74.78125 -15.90625 C 71.78125 -11.800781 67.828125 -8.582031 62.921875 -6.25 C 58.015625 -3.925781 52.554688 -2.765625 46.546875 -2.765625 Z M 51.890625 -27.78125 C 55.804688 -27.78125 59.207031 -28.640625 62.09375 -30.359375 C 64.976562 -32.078125 67.1875 -34.375 68.71875 -37.25 C 70.25 -40.132812 71.015625 -43.414062 71.015625 -47.09375 C 71.015625 -50.78125 70.25 -54.09375 68.71875 -57.03125 C 67.1875 -59.976562 64.976562 -62.3125 62.09375 -64.03125 C 59.207031 -65.75 55.804688 -66.609375 51.890625 -66.609375 C 48.085938 -66.609375 44.710938 -65.75 41.765625 -64.03125 C 38.816406 -62.3125 36.546875 -59.976562 34.953125 -57.03125 C 33.359375 -54.09375 32.5625 -50.78125 32.5625 -47.09375 C 32.5625 -43.664062 33.359375 -40.445312 34.953125 -37.4375 C 36.546875 -34.4375 38.785156 -32.078125 41.671875 -30.359375 C 44.554688 -28.640625 47.960938 -27.78125 51.890625 -27.78125 Z M 51.890625 -27.78125 "/></g></g></g><g clip-path="url(#88bf649560)"><g clip-path="url(#8a0e2dc66d)"><g transform="matrix(1, 0, 0, 1, 120, 73)"><g clip-path="url(#b51adadcd6)"><g clip-path="url(#36f7e87bc7)"><g clip-path="url(#7f50d7ff40)"><path fill="#000000" d="M 0.90625 0.949219 L 43.929688 0.949219 L 43.929688 40.003906 L 0.90625 40.003906 Z M 0.90625 0.949219 " fill-opacity="1" fill-rule="nonzero"/></g></g></g></g></g></g>
      </svg>
    </mask>
  </defs>

  <rect width="375" height="375" style="fill: currentColor;" mask="url(#cutout-mask)" />
</svg>
